<svg width="25" height="24" viewBox="0 0 25 24" fill="none" xmlns="http://www.w3.org/2000/svg">
<path d="M12.2175 0.10145C9.03811 0.069142 5.97595 1.30051 3.70403 3.52493C1.4321 5.74935 0.136313 8.78481 0.10144 11.9642C0.113691 14.4768 0.921967 16.9209 2.41017 18.9454C3.89838 20.9699 5.98994 22.4707 8.38443 23.2321C8.99024 23.3423 9.21053 22.9788 9.21053 22.6594C9.21053 22.34 9.21053 21.635 9.21053 20.6437C5.84006 21.3597 5.1241 19.0576 5.1241 19.0576C4.89973 18.3349 4.42273 17.7172 3.78032 17.3173C2.67886 16.5903 3.86844 16.6013 3.86844 16.6013C4.24916 16.6522 4.61342 16.7887 4.93389 17.0004C5.25437 17.2122 5.52274 17.4937 5.71889 17.824C6.06071 18.4167 6.62158 18.8515 7.28078 19.0349C7.93998 19.2182 8.64481 19.1354 9.24357 18.8043C9.30515 18.2011 9.5783 17.6392 10.0146 17.2182C7.32703 16.9208 4.50729 15.9074 4.50729 11.3584C4.48325 10.1718 4.9217 9.02231 5.72991 8.15314C5.36183 7.13436 5.40529 6.01224 5.85107 5.02498C5.85107 5.02498 6.87543 4.70556 9.15545 6.23659C11.1402 5.70771 13.2288 5.70771 15.2135 6.23659C17.5266 4.70556 18.5179 5.02498 18.5179 5.02498C18.9637 6.01224 19.0071 7.13436 18.639 8.15314C19.466 9.00638 19.9282 10.1481 19.9277 11.3364C19.9277 15.8964 17.086 16.8987 14.4204 17.1961C14.7123 17.4795 14.9378 17.824 15.0806 18.2049C15.2234 18.5858 15.2801 18.9936 15.2465 19.3991V22.6484C15.2465 22.6484 15.4668 23.3423 16.0726 23.2211C18.4603 22.455 20.5449 20.9538 22.0284 18.9322C23.512 16.9105 24.3188 14.4718 24.3336 11.9642C24.2987 8.78481 23.0029 5.74935 20.731 3.52493C18.4591 1.30051 15.3969 0.069142 12.2175 0.10145Z" fill="#231F20"/>
</svg>
