<?xml version="1.0" standalone="no"?>
<!DOCTYPE svg PUBLIC "-//W3C//DTD SVG 20010904//EN"
 "http://www.w3.org/TR/2001/REC-SVG-20010904/DTD/svg10.dtd">
<svg version="1.0" xmlns="http://www.w3.org/2000/svg"
 width="700.000000pt" height="700.000000pt" viewBox="0 0 700.000000 700.000000"
 preserveAspectRatio="xMidYMid meet">
<metadata>
Created by potrace 1.14, written by Peter Selinger 2001-2017
</metadata>
<g transform="translate(0.000000,700.000000) scale(0.100000,-0.100000)"
fill="#000000" stroke="none">
<path d="M4274 4610 c-13 -5 -54 -67 -105 -156 -46 -81 -95 -165 -107 -188
-32 -55 -197 -343 -315 -546 l-95 -165 -190 -5 -190 -5 -99 -97 c-54 -53 -120
-117 -148 -143 -27 -26 -103 -100 -168 -163 l-117 -116 -310 158 c-277 140
-312 155 -333 145 -18 -10 -422 -341 -437 -359 -3 -3 -17 -15 -32 -26 -15 -12
-51 -41 -80 -66 -29 -25 -138 -117 -243 -203 -104 -87 -203 -169 -220 -184
-16 -14 -95 -80 -175 -146 -80 -66 -147 -122 -150 -125 -3 -3 -30 -25 -60 -50
-30 -25 -57 -47 -60 -50 -3 -3 -32 -28 -65 -54 -66 -53 -85 -79 -77 -108 7
-26 39 -47 65 -41 18 5 157 109 177 133 3 4 77 66 165 139 88 73 169 140 180
149 11 10 65 55 120 101 55 45 109 90 120 100 11 9 142 117 290 241 149 123
272 227 275 230 15 18 211 172 214 169 2 -2 12 -22 23 -44 10 -22 70 -138 132
-259 l114 -218 -8 -77 c-4 -42 -8 -87 -10 -101 -1 -14 -6 -61 -10 -105 -4 -44
-9 -88 -10 -97 -2 -9 -7 -57 -10 -105 -4 -48 -9 -96 -10 -105 -5 -25 33 -68
59 -68 26 0 41 15 316 324 19 22 51 56 70 77 19 20 64 70 100 110 55 62 232
259 265 295 5 6 44 48 85 94 41 46 87 97 101 113 l27 29 82 -159 c46 -87 98
-185 115 -218 18 -33 56 -105 84 -160 59 -114 78 -135 117 -127 27 5 29 7 129
227 20 45 179 398 225 500 10 22 28 63 40 90 13 28 31 100 41 160 18 114 47
298 55 350 2 17 6 41 9 55 4 26 9 61 21 145 3 28 8 59 10 70 9 47 35 213 39
249 3 21 7 46 9 55 3 9 8 41 11 71 4 30 10 58 14 63 4 4 20 -9 36 -29 16 -20
40 -48 54 -63 14 -15 46 -52 71 -82 25 -29 63 -74 86 -99 22 -25 71 -81 109
-125 37 -44 94 -109 125 -145 32 -36 105 -121 165 -190 59 -69 121 -141 139
-161 121 -137 251 -292 251 -300 0 -8 -75 -70 -216 -180 -242 -189 -442 -354
-450 -373 -22 -48 32 -92 81 -66 12 6 31 20 43 30 25 21 233 186 537 427 113
89 258 205 322 257 65 53 120 96 123 96 5 0 -15 -38 -222 -420 l-138 -255 -70
-38 c-39 -21 -153 -81 -255 -134 -278 -144 -406 -211 -495 -258 -44 -23 -121
-64 -172 -90 -51 -26 -97 -53 -103 -60 -19 -23 -7 -68 22 -84 29 -17 2 -29
343 149 61 32 169 88 240 125 72 37 171 89 220 115 50 26 144 75 210 110 66
34 130 72 141 84 12 11 43 62 69 111 26 50 58 108 70 130 22 39 54 98 130 240
21 39 66 122 100 185 34 63 75 139 90 168 15 28 30 52 34 52 4 0 34 -30 67
-67 32 -36 64 -71 69 -77 6 -6 73 -83 150 -171 77 -88 142 -162 145 -165 5 -4
233 -264 320 -364 14 -16 36 -41 50 -56 14 -15 50 -56 80 -90 30 -35 63 -72
73 -83 16 -19 17 -17 17 68 l0 88 -57 66 c-32 36 -69 79 -83 95 -14 16 -34 39
-45 50 -11 12 -49 55 -85 96 -65 74 -116 133 -135 154 -20 23 -143 162 -171
195 -16 19 -36 41 -44 50 -9 9 -47 52 -85 96 -39 44 -77 87 -85 97 -8 9 -46
52 -85 96 -76 86 -104 102 -140 78 -13 -9 -132 -103 -265 -210 -187 -151 -245
-193 -254 -183 -6 7 -38 43 -71 82 -97 112 -110 127 -161 186 -27 30 -86 98
-130 150 -45 52 -148 171 -229 264 -81 94 -171 197 -199 230 -28 32 -71 82
-96 110 -25 28 -79 91 -120 139 -136 161 -141 164 -186 146z m-94 -436 c-6
-38 -13 -81 -15 -96 -7 -42 -13 -79 -19 -118 -3 -19 -19 -125 -36 -235 -17
-110 -33 -216 -36 -235 -3 -19 -7 -44 -9 -56 -2 -11 -7 -45 -11 -75 -7 -56
-22 -100 -72 -209 -16 -36 -38 -85 -50 -110 -11 -25 -53 -119 -94 -210 -41
-91 -83 -184 -93 -207 -10 -24 -22 -43 -26 -43 -4 0 -24 33 -45 73 -20 39 -51
99 -69 132 -18 33 -58 110 -90 170 -101 192 -117 220 -133 233 -34 27 -58 14
-138 -75 -43 -49 -85 -95 -94 -104 -8 -9 -47 -52 -86 -95 -39 -43 -115 -128
-170 -189 -54 -60 -115 -128 -134 -149 -19 -22 -42 -47 -50 -56 -8 -8 -51 -56
-95 -105 -44 -50 -99 -110 -123 -135 l-43 -45 6 60 c10 105 16 169 20 191 2
12 6 60 10 108 l7 86 -67 132 c-37 73 -90 174 -116 225 -27 51 -49 95 -49 97
0 3 105 -48 234 -114 128 -66 244 -120 257 -120 24 1 35 11 380 344 69 66 142
136 162 155 l36 34 178 -1 c98 0 188 4 199 8 20 8 59 73 373 621 58 103 107
186 109 184 1 -1 -2 -33 -8 -71z"/>
</g>
</svg>
